<?xml version="1.0" encoding="utf-8"?>
<!-- Generator: Adobe Illustrator 16.0.0, SVG Export Plug-In . SVG Version: 6.00 Build 0)  -->
<!DOCTYPE svg PUBLIC "-//W3C//DTD SVG 1.1//EN" "http://www.w3.org/Graphics/SVG/1.1/DTD/svg11.dtd">
<svg version="1.1" id="Layer_1" xmlns="http://www.w3.org/2000/svg" xmlns:xlink="http://www.w3.org/1999/xlink" x="0px" y="0px"
	 width="761.093px" height="522.449px" viewBox="0 0 761.093 522.449" enable-background="new 0 0 761.093 522.449"
	 xml:space="preserve">
<g>
	<g>
		<g id="XMLID_1_">
			<g>
				<path d="M611.714,312.004c1.318,0.059,2.337,0.096,3.033,0.125C613.729,312.1,612.718,312.056,611.714,312.004z"/>
				<path d="M596.773,316.005c-66.445-2.55-164.369,29.728-208.708,29.061c-44.404-0.667-61.771-40.169-61.771-40.169
					c45.533,16.304,80.339,7.057,126.377,6.287C472.932,310.839,589.732,315.712,596.773,316.005z"/>
				<path d="M610.512,314.363c-27.683-1.15-140.746-9.467-167.513-7.459c-40.683,3.056-90.165,8.272-113.979-2.499
					c0,0,40.572-25.543,112.198-22.539C511.328,284.812,529.888,310.561,610.512,314.363z"/>
				<path d="M338.451,290.19c23.99-12.032,53.549-24.378,87.409-33.647c24.306-6.653,22.034-4.888,141.135-46.676
					c-2.044,0.835-119.899,48.86-143.912,55.557c-16.677,4.646-42.426,13.724-68.893,24.598
					c-19.491,7.122-39.612,15.227-56.707,23.279C308.269,306.472,322.059,298.404,338.451,290.19z"/>
				<path d="M460.299,27.229c1.136,0.154-39.62,78.968-58.158,108.52c-17.886,28.511-34.417,66.768-45.423,92.026
					c-8.683,19.894-24.489,53.629-28.834,63.675c-0.784,0.366-1.561,0.733-2.308,1.092c-0.007-0.051-0.015-0.103-0.022-0.146
					c-1.18-8.844,0.997-12.413,2.044-15.373c2-5.649,2.646-18.106,2.646-18.106c-0.579-22.803,16.516-72.879,31.383-100.833
					C379.001,125.402,459.149,27.112,460.299,27.229z"/>
				<path d="M475.174,0c-0.433,1.949-28.562,126.597-52.414,176.622c-20.78,43.584-45.606,84.061-73.523,106.571
					c-7.035,2.909-13.593,5.803-19.638,8.617c4.257-8.932,15.534-30.277,27.046-57.418c15.563-36.726,65.023-122.032,75.378-139.911
					C442.303,76.741,474.587,1.371,475.174,0z"/>
				<path d="M354.19,290.021c-31.61,12.977-64.262,28.526-83.76,42.185c0.521-0.425,10.061-8.134,27.053-18.905
					C314.578,305.248,334.699,297.144,354.19,290.021z"/>
				<path d="M309.097,92.649c7.013,27.72,24.921,159.658,17.359,182.579c-2.645,8.031-7.562,17.3-11.643,23.396
					c-1.927,0.967-3.781,1.92-5.547,2.843c-0.33,0.169-0.645,0.337-0.959,0.506c-1.106-2.843-3.048-18.648-3.635-24.921
					c-0.469-4.953-7.254-230.815-7.254-230.815C301.674,48.596,307.558,86.545,309.097,92.649z"/>
				<path d="M305.565,303.424c-0.432,0.227-0.865,0.461-1.29,0.688c-5.43-1.033-24.312-5.848-29.903-23.8
					c-17.366-55.762,18.927-193.174,18.927-193.174s2.909,64.87,3.781,74.3C297.688,167.836,300.296,277.807,305.565,303.424z"/>
			</g>
			<g>
			</g>
		</g>
	</g>
	<g>
		<path d="M68.052,452.762c-5.089,1.894-15.03,4.497-25.681,4.497c-13.492,0-23.669-3.432-31.244-10.651
			c-7.101-6.745-11.243-17.278-11.125-29.35c0-25.208,17.988-41.422,44.38-41.422c9.823,0,17.516,2.013,21.184,3.787l-3.195,11.717
			c-4.379-1.894-9.705-3.433-18.107-3.433c-17.042,0-28.995,10.06-28.995,28.641c0,18.107,11.125,28.877,27.693,28.877
			c5.207,0,9.112-0.711,11.006-1.657v-19.883H39.885v-11.479h28.167V452.762z"/>
		<path d="M137.871,427.081c0,21.184-14.912,30.651-29.586,30.651c-16.332,0-28.877-11.243-28.877-29.705
			c0-18.936,12.427-30.533,29.824-30.533C126.392,397.494,137.871,409.565,137.871,427.081z M94.438,427.672
			c0,11.125,5.444,19.527,14.32,19.527c8.284,0,14.083-8.166,14.083-19.764c0-8.994-4.024-19.29-13.965-19.29
			C98.58,408.146,94.438,418.086,94.438,427.672z"/>
		<path d="M149.821,417.376c0-7.811-0.119-13.373-0.474-18.58h12.663l0.474,11.006h0.473c2.84-8.166,9.586-12.308,15.74-12.308
			c1.42,0,2.249,0.118,3.432,0.354v13.729c-1.184-0.236-2.485-0.474-4.26-0.474c-6.982,0-11.717,4.497-13.019,11.007
			c-0.236,1.302-0.473,2.84-0.473,4.497v29.823h-14.557V417.376z"/>
		<path d="M207.453,382.7c0,4.379-3.195,7.812-8.284,7.812c-4.853,0-8.048-3.433-8.048-7.812c0-4.497,3.314-7.929,8.166-7.929
			C204.258,374.771,207.334,378.203,207.453,382.7z M191.95,456.431v-57.635h14.675v57.635H191.95z"/>
		<path d="M222.245,372.404h14.675v84.026h-14.675V372.404z"/>
		<path d="M252.658,372.404h14.675v84.026h-14.675V372.404z"/>
		<path d="M315.498,456.431l-0.947-6.391h-0.355c-3.55,4.497-9.586,7.692-17.042,7.692c-11.598,0-18.107-8.402-18.107-17.16
			c0-14.557,12.9-21.895,34.202-21.776v-0.946c0-3.787-1.538-10.06-11.716-10.06c-5.681,0-11.598,1.775-15.503,4.261l-2.84-9.468
			c4.261-2.604,11.716-5.089,20.829-5.089c18.462,0,23.788,11.716,23.788,24.261v20.829c0,5.207,0.237,10.296,0.829,13.847H315.498z
			 M313.604,428.264c-10.296-0.236-20.119,2.013-20.119,10.77c0,5.681,3.668,8.285,8.284,8.285c5.799,0,10.06-3.787,11.361-7.93
			c0.355-1.065,0.474-2.249,0.474-3.195V428.264z"/>
		<path d="M369.106,419.861v10.06h-30.179v-10.06H369.106z"/>
		<path d="M380.701,440.572c4.734,2.722,11.835,5.089,19.291,5.089c9.35,0,14.557-4.379,14.557-10.888
			c0-6.036-4.024-9.587-14.202-13.255c-13.136-4.734-21.539-11.717-21.539-23.196c0-13.019,10.889-22.959,28.167-22.959
			c8.64,0,15.03,1.894,19.172,4.023l-3.55,11.716c-2.841-1.538-8.403-3.787-15.859-3.787c-9.23,0-13.254,4.971-13.254,9.587
			c0,6.153,4.615,8.994,15.267,13.136c13.847,5.208,20.592,12.19,20.592,23.67c0,12.781-9.704,23.906-30.297,23.906
			c-8.402,0-17.16-2.367-21.539-4.971L380.701,440.572z"/>
		<path d="M458.097,382.346v16.45h13.847v10.888h-13.847v25.444c0,6.982,1.894,10.651,7.456,10.651c2.485,0,4.379-0.354,5.681-0.71
			l0.236,11.125c-2.13,0.828-5.917,1.42-10.533,1.42c-5.325,0-9.822-1.775-12.545-4.734c-3.076-3.313-4.497-8.521-4.497-16.095
			v-27.102h-8.284v-10.888h8.284v-13.019L458.097,382.346z"/>
		<path d="M534.547,439.152c0,6.864,0.236,12.544,0.474,17.278H522.24l-0.71-8.758h-0.237c-2.485,4.143-8.166,10.06-18.462,10.06
			c-10.533,0-20.119-6.272-20.119-25.09v-33.847h14.557v31.361c0,9.587,3.077,15.74,10.77,15.74c5.799,0,9.586-4.142,11.125-7.811
			c0.473-1.302,0.828-2.841,0.828-4.497v-34.794h14.557V439.152z"/>
		<path d="M603.421,372.404v67.812c0,5.918,0.236,12.309,0.473,16.214h-13.018l-0.592-9.112h-0.237
			c-3.432,6.391-10.414,10.414-18.816,10.414c-13.729,0-24.616-11.716-24.616-29.469c-0.119-19.29,11.952-30.77,25.799-30.77
			c7.93,0,13.61,3.313,16.214,7.574h0.236v-32.664H603.421z M588.864,422.82c0-1.184-0.118-2.604-0.354-3.787
			c-1.302-5.681-5.917-10.297-12.545-10.297c-9.35,0-14.557,8.285-14.557,19.055c0,10.532,5.207,18.226,14.438,18.226
			c5.917,0,11.125-4.024,12.545-10.297c0.354-1.302,0.473-2.722,0.473-4.261V422.82z"/>
		<path d="M634.543,382.7c0,4.379-3.195,7.812-8.284,7.812c-4.853,0-8.048-3.433-8.048-7.812c0-4.497,3.313-7.929,8.166-7.929
			C631.348,374.771,634.425,378.203,634.543,382.7z M619.04,456.431v-57.635h14.676v57.635H619.04z"/>
		<path d="M704.129,427.081c0,21.184-14.911,30.651-29.587,30.651c-16.332,0-28.876-11.243-28.876-29.705
			c0-18.936,12.426-30.533,29.823-30.533C692.65,397.494,704.129,409.565,704.129,427.081z M660.696,427.672
			c0,11.125,5.444,19.527,14.32,19.527c8.284,0,14.083-8.166,14.083-19.764c0-8.994-4.023-19.29-13.965-19.29
			C664.838,408.146,660.696,418.086,660.696,427.672z"/>
		<path d="M715.37,443.058c3.314,2.012,9.586,4.142,14.794,4.142c6.391,0,9.23-2.604,9.23-6.391c0-3.905-2.366-5.917-9.468-8.402
			c-11.242-3.905-15.977-10.06-15.858-16.806c0-10.178,8.403-18.106,21.776-18.106c6.391,0,11.953,1.656,15.267,3.432l-2.841,10.296
			c-2.485-1.42-7.101-3.313-12.189-3.313c-5.207,0-8.048,2.485-8.048,6.036c0,3.668,2.723,5.443,10.06,8.047
			c10.415,3.787,15.267,9.113,15.386,17.634c0,10.415-8.166,17.989-23.433,17.989c-6.983,0-13.256-1.657-17.516-4.023
			L715.37,443.058z"/>
	</g>
	<g>
		<path d="M328.229,478.807c2.84-0.517,6.778-0.903,12.137-0.903c5.81,0,10.071,1.227,12.847,3.551
			c2.583,2.13,4.261,5.552,4.261,9.619c0,4.132-1.292,7.554-3.745,9.878c-3.164,3.163-8.135,4.648-13.751,4.648
			c-1.485,0-2.84-0.064-3.874-0.259v16.398h-7.876V478.807z M336.105,499.079c0.969,0.258,2.26,0.322,3.874,0.322
			c5.939,0,9.555-2.905,9.555-8.005c0-4.843-3.357-7.425-8.845-7.425c-2.195,0-3.745,0.193-4.584,0.388V499.079z"/>
		<path d="M372.257,478.226v17.432h18.399v-17.432h7.941v43.514h-7.941v-19.174h-18.399v19.174h-7.94v-43.514H372.257z"/>
		<path d="M446.307,499.53c0,14.591-8.845,22.919-20.853,22.919c-12.267,0-20.014-9.361-20.014-22.144
			c0-13.364,8.393-22.79,20.659-22.79C438.818,477.516,446.307,487.135,446.307,499.53z M413.833,500.176
			c0,8.845,4.455,15.882,12.073,15.882c7.683,0,12.008-7.102,12.008-16.204c0-8.199-4.067-15.946-12.008-15.946
			C418.03,483.907,413.833,491.202,413.833,500.176z"/>
		<path d="M459.735,484.876h-12.396v-6.65h32.861v6.65h-12.525v36.863h-7.94V484.876z"/>
		<path d="M522.099,499.53c0,14.591-8.845,22.919-20.853,22.919c-12.267,0-20.014-9.361-20.014-22.144
			c0-13.364,8.393-22.79,20.659-22.79C514.61,477.516,522.099,487.135,522.099,499.53z M489.625,500.176
			c0,8.845,4.455,15.882,12.073,15.882c7.683,0,12.008-7.102,12.008-16.204c0-8.199-4.067-15.946-12.008-15.946
			C493.822,483.907,489.625,491.202,489.625,500.176z"/>
		<path d="M563.804,519.738c-2.776,1.032-8.199,2.453-14.01,2.453c-7.359,0-12.912-1.872-17.044-5.811
			c-3.873-3.68-6.133-9.426-6.068-16.011c0-13.752,9.813-22.596,24.21-22.596c5.358,0,9.555,1.097,11.557,2.065l-1.743,6.392
			c-2.389-1.033-5.294-1.872-9.878-1.872c-9.297,0-15.817,5.487-15.817,15.623c0,9.878,6.068,15.753,15.107,15.753
			c2.84,0,4.971-0.388,6.004-0.904v-10.846h-7.683v-6.263h15.365V519.738z"/>
		<path d="M571.937,478.807c2.97-0.517,7.424-0.903,12.008-0.903c6.263,0,10.523,1.032,13.429,3.486
			c2.389,2.001,3.744,5.035,3.744,8.715c0,5.617-3.809,9.426-7.876,10.911v0.193c3.099,1.162,4.971,4.196,6.068,8.393
			c1.355,5.424,2.518,10.459,3.422,12.138h-8.199c-0.646-1.291-1.679-4.842-2.905-10.265c-1.227-5.682-3.292-7.489-7.812-7.618
			h-4.003v17.883h-7.876V478.807z M579.813,498.046h4.713c5.358,0,8.716-2.841,8.716-7.166c0-4.777-3.357-6.973-8.522-6.973
			c-2.518,0-4.132,0.193-4.906,0.388V498.046z"/>
		<path d="M617.837,509.408l-3.745,12.331h-8.199l13.945-43.514h10.136l14.139,43.514h-8.521l-3.938-12.331H617.837z
			 M630.297,503.404l-3.422-10.717c-0.84-2.647-1.55-5.617-2.195-8.135h-0.129c-0.646,2.518-1.291,5.552-2.066,8.135l-3.356,10.717
			H630.297z"/>
		<path d="M650.18,478.807c2.841-0.517,6.778-0.903,12.137-0.903c5.811,0,10.071,1.227,12.848,3.551
			c2.582,2.13,4.261,5.552,4.261,9.619c0,4.132-1.291,7.554-3.744,9.878c-3.163,3.163-8.135,4.648-13.751,4.648
			c-1.485,0-2.841-0.064-3.874-0.259v16.398h-7.876V478.807z M658.056,499.079c0.969,0.258,2.26,0.322,3.874,0.322
			c5.939,0,9.555-2.905,9.555-8.005c0-4.843-3.357-7.425-8.845-7.425c-2.195,0-3.744,0.193-4.584,0.388V499.079z"/>
		<path d="M694.208,478.226v17.432h18.399v-17.432h7.941v43.514h-7.941v-19.174h-18.399v19.174h-7.94v-43.514H694.208z"/>
		<path d="M738.692,521.739v-18.142l-13.752-25.372h9.039l5.229,11.169c1.485,3.229,2.583,5.682,3.745,8.651h0.129
			c1.098-2.776,2.324-5.487,3.809-8.651l5.229-11.169h8.974l-14.461,25.179v18.335H738.692z"/>
	</g>
</g>
</svg>
