<?xml version="1.0" encoding="utf-8"?>
<!-- Generator: Adobe Illustrator 16.0.0, SVG Export Plug-In . SVG Version: 6.00 Build 0)  -->
<!DOCTYPE svg PUBLIC "-//W3C//DTD SVG 1.1//EN" "http://www.w3.org/Graphics/SVG/1.1/DTD/svg11.dtd">
<svg version="1.1" id="Layer_1" xmlns="http://www.w3.org/2000/svg" xmlns:xlink="http://www.w3.org/1999/xlink" x="0px" y="0px"
	 width="765.609px" height="538.084px" viewBox="0 0 765.609 538.084" enable-background="new 0 0 765.609 538.084"
	 xml:space="preserve">
<g>
	<g id="XMLID_1_">
		<g>
			<path fill="#50A045" d="M615.973,312.209c1.318,0.059,2.337,0.096,3.033,0.125C617.987,312.305,616.977,312.261,615.973,312.209z
				"/>
			<path fill="#50A045" d="M601.031,316.21c-66.445-2.55-164.369,29.728-208.708,29.061c-44.404-0.667-61.771-40.169-61.771-40.169
				c45.533,16.304,80.339,7.057,126.377,6.287C477.19,311.044,593.99,315.917,601.031,316.21z"/>
			<path fill="#50A045" d="M614.771,314.568c-27.683-1.15-140.746-9.467-167.513-7.459c-40.683,3.056-90.165,8.272-113.979-2.499
				c0,0,40.572-25.543,112.198-22.539C515.586,285.017,534.146,310.766,614.771,314.568z"/>
			<path fill="#50A045" d="M342.709,290.395c23.99-12.032,53.549-24.378,87.409-33.647c24.306-6.653,22.034-4.888,141.135-46.676
				c-2.044,0.835-119.899,48.86-143.912,55.557c-16.677,4.646-42.426,13.724-68.893,24.598
				c-19.491,7.122-39.612,15.227-56.707,23.279C312.527,306.677,326.317,298.609,342.709,290.395z"/>
			<path fill="#50A045" d="M464.558,27.434c1.136,0.154-39.62,78.968-58.158,108.52c-17.886,28.511-34.417,66.768-45.423,92.026
				c-8.683,19.894-24.489,53.629-28.834,63.675c-0.784,0.366-1.561,0.733-2.308,1.092c-0.007-0.051-0.015-0.103-0.022-0.146
				c-1.18-8.844,0.997-12.413,2.044-15.373c2-5.649,2.646-18.106,2.646-18.106c-0.579-22.803,16.516-72.879,31.383-100.833
				C383.259,125.607,463.407,27.317,464.558,27.434z"/>
			<path fill="#50A045" d="M479.433,0.205C479,2.154,450.87,126.802,427.019,176.827c-20.78,43.584-45.606,84.061-73.523,106.571
				c-7.035,2.909-13.593,5.803-19.638,8.617c4.257-8.932,15.534-30.277,27.046-57.418c15.563-36.726,65.023-122.032,75.378-139.911
				C446.562,76.946,478.846,1.576,479.433,0.205z"/>
			<path fill="#50A045" d="M358.448,290.227c-31.61,12.977-64.262,28.526-83.76,42.185c0.521-0.425,10.061-8.134,27.053-18.905
				C318.836,305.453,338.958,297.349,358.448,290.227z"/>
			<path fill="#50A045" d="M313.355,92.854c7.013,27.72,24.921,159.658,17.359,182.579c-2.645,8.031-7.562,17.3-11.643,23.396
				c-1.927,0.967-3.781,1.92-5.547,2.843c-0.33,0.169-0.645,0.337-0.959,0.506c-1.106-2.843-3.048-18.648-3.635-24.921
				c-0.469-4.953-7.254-230.815-7.254-230.815C305.933,48.801,311.816,86.75,313.355,92.854z"/>
			<path fill="#50A045" d="M309.823,303.629c-0.432,0.227-0.865,0.461-1.29,0.688c-5.43-1.033-24.312-5.848-29.903-23.8
				c-17.366-55.762,18.927-193.174,18.927-193.174s2.909,64.87,3.781,74.3C301.946,168.041,304.555,278.012,309.823,303.629z"/>
		</g>
		<g>
		</g>
	</g>
</g>
<text transform="matrix(1 0 0 1 0 456.6357)" font-family="'MyriadPro-Semibold'" font-size="118.3425">Gorilla-Studios</text>
<text transform="matrix(1 0 0 1 327.9033 521.9443)" font-family="'MyriadPro-Semibold'" font-size="64.5591">PHOTOGRAPHY</text>
</svg>
