<?xml version="1.0" encoding="utf-8"?>
<!-- Generator: Adobe Illustrator 16.0.4, SVG Export Plug-In . SVG Version: 6.00 Build 0)  -->
<!DOCTYPE svg PUBLIC "-//W3C//DTD SVG 1.1//EN" "http://www.w3.org/Graphics/SVG/1.1/DTD/svg11.dtd">
<svg version="1.1" id="Layer_1" xmlns="http://www.w3.org/2000/svg" xmlns:xlink="http://www.w3.org/1999/xlink" x="0px" y="0px"
	 width="549.395px" height="94.265px" viewBox="0 0 549.395 94.265" enable-background="new 0 0 549.395 94.265"
	 xml:space="preserve">
<g>
	<path fill="#58595B" d="M30.925,39.038c-1.705,1.587-5.232,4.821-12.229,4.821C7.114,43.859,0,34.453,0,22.224
		C0,8.878,8.643,0,20.46,0c10.994,0,16.344,7.055,18.284,9.583l-7.878,4.762c-1.47-2.234-3.88-5.879-9.642-5.879
		c-7.878,0-10.876,6.526-10.876,13.463c0,4.703,1.293,8.525,3.292,10.583c1.587,1.705,4.41,2.999,7.584,2.999
		c1.881,0,3.998-0.47,5.703-1.587c2.705-1.764,3.057-3.998,3.351-6.173h-9.289v-7.878h18.049v23.046h-8.113V39.038z"/>
	<path fill="#58595B" d="M66.087,44.094c-13.169,0-20.636-10.112-20.636-22.106c0-11.229,7.114-21.871,20.459-21.871
		c2.47,0,5.056,0.353,7.584,1.235C86.194,5.762,87.017,19.578,87.017,22.4c0,7.173-3.292,13.64-7.878,17.344
		C75.082,43.095,70.378,44.094,66.087,44.094z M73.259,11.817c-1.764-1.881-4.468-3.057-7.29-3.057
		c-6.291,0-10.289,5.526-10.289,13.052c0,9.877,5.526,13.522,10.406,13.522c4.938,0,10.229-3.528,10.523-12.229
		C76.787,18.755,75.611,14.346,73.259,11.817z"/>
	<path fill="#58595B" d="M93.488,1.411h18.696c4.351,0.059,9.76,0.118,13.581,4.233c1.94,2.175,3.292,5.468,3.292,9.23
		c0,8.349-5.703,10.406-8.525,11.464l9.583,16.58h-11.464l-8.231-14.815h-6.526v14.815H93.488V1.411z M103.894,9.172v11.229h8.583
		c1.47-0.059,6.232-0.176,6.232-5.703c0-5.292-3.822-5.468-5.997-5.526H103.894z"/>
	<path fill="#58595B" d="M147.933,1.411v41.507h-10.348V1.411H147.933z"/>
	<path fill="#58595B" d="M158.517,1.353h10.347v32.806h16.227v8.76h-26.574V1.353z"/>
	<path fill="#58595B" d="M190.384,1.353h10.347v32.806h16.227v8.76h-26.574V1.353z"/>
	<path fill="#58595B" d="M244.417,1.411l15.286,41.507H248.65l-2.058-6.644h-15.286l-2.058,6.644h-11.053l15.403-41.507H244.417z
		 M238.832,11.288c-0.529,2.117-1.117,4.292-1.705,6.409c-0.882,3.116-2.469,7.996-3.41,11.111h10.524L238.832,11.288z"/>
	<path fill="#58595B" d="M262.94,21.4h14.581v8.407H262.94V21.4z"/>
	<path fill="#58595B" d="M289.104,30.455c1.058,1.176,1.94,2.116,3.998,3.233c2.763,1.47,5.585,1.999,7.996,1.999
		c4.115,0,7.643-1.94,7.643-4.821c0-3.292-4.174-3.822-7.231-4.233c-2.293-0.294-4.586-0.588-6.82-1.058
		c-2.528-0.529-11.171-2.352-11.171-11.288c0-10.7,9.524-13.875,16.697-13.875c9.583,0,14.757,4.645,18.343,7.878l-7.643,5.467
		c-1.293-1.293-2.469-2.41-4.116-3.351c-1.47-0.823-4.115-1.822-6.761-1.822c-4.116,0-6.173,2.352-6.173,4.351
		c0,3.175,3.527,3.645,5.292,3.88c4.409,0.529,10.347,1.646,12.699,2.469c4.763,1.764,7.173,5.467,7.173,10.171
		c0,2.999-1.117,6.291-3.292,8.819c-3.763,4.351-9.76,5.585-15.581,5.585c-11.699,0-16.344-5.409-18.931-8.407L289.104,30.455z"/>
	<path fill="#58595B" d="M321.561,1.353h31.983v8.231h-10.759v33.335h-10.406V9.583h-10.818V1.353z"/>
	<path fill="#58595B" d="M393.29,1.411v23.164c-0.059,3.998-0.117,7.996-2.41,11.758c-4.469,7.173-13.699,7.525-15.463,7.525
		c-3.115,0-6.819-0.764-9.642-2.234c-7.996-4.115-7.996-11.406-7.937-17.05V1.411h10.465V27.28c0,2.117,0.059,3.88,0.764,5.174
		c1.294,2.175,4.116,2.822,6.703,2.822c7.055,0,7.055-4.821,7.113-8.054V1.411H393.29z"/>
	<path fill="#58595B" d="M403.465,1.411h13.228c5.057,0.059,12.699,0.176,17.99,4.88c4.292,3.88,5.938,9.701,5.938,15.521
		c0,3.586-0.529,6.232-1.059,7.996c-3.821,12.817-15.403,13.052-19.754,13.111h-16.344V1.411z M413.93,10.171V34.57h3.175
		c5.526-0.117,13.169-0.412,13.169-12.346c0-2.881-0.294-5.762-2.175-8.349c-2.822-3.763-6.82-3.704-9.995-3.704H413.93z"/>
	<path fill="#58595B" d="M459.144,1.411v41.507h-10.347V1.411H459.144z"/>
	<path fill="#58595B" d="M487.601,44.094c-13.17,0-20.636-10.112-20.636-22.106c0-11.229,7.113-21.871,20.459-21.871
		c2.47,0,5.057,0.353,7.584,1.235C507.707,5.762,508.53,19.578,508.53,22.4c0,7.173-3.292,13.64-7.878,17.344
		C496.596,43.095,491.893,44.094,487.601,44.094z M494.773,11.817c-1.764-1.881-4.469-3.057-7.291-3.057
		c-6.29,0-10.288,5.526-10.288,13.052c0,9.877,5.526,13.522,10.406,13.522c4.938,0,10.229-3.528,10.523-12.229
		C498.301,18.755,497.125,14.346,494.773,11.817z"/>
	<path fill="#58595B" d="M519.47,30.455c1.059,1.176,1.94,2.116,3.998,3.233c2.763,1.47,5.585,1.999,7.995,1.999
		c4.116,0,7.644-1.94,7.644-4.821c0-3.292-4.175-3.822-7.231-4.233c-2.293-0.294-4.586-0.588-6.82-1.058
		c-2.527-0.529-11.17-2.352-11.17-11.288c0-10.7,9.524-13.875,16.696-13.875c9.584,0,14.757,4.645,18.344,7.878l-7.644,5.467
		c-1.293-1.293-2.469-2.41-4.115-3.351c-1.47-0.823-4.115-1.822-6.761-1.822c-4.115,0-6.174,2.352-6.174,4.351
		c0,3.175,3.528,3.645,5.292,3.88c4.409,0.529,10.348,1.646,12.699,2.469c4.762,1.764,7.172,5.467,7.172,10.171
		c0,2.999-1.116,6.291-3.292,8.819c-3.763,4.351-9.76,5.585-15.58,5.585c-11.699,0-16.344-5.409-18.931-8.407L519.47,30.455z"/>
</g>
<g>
	<path fill="#939598" d="M0,57.763h14.279c5.832,0,11.011,0,14.128,4.475c1.357,2.011,2.011,4.877,2.011,7.291
		c0,1.961-0.402,3.871-1.206,5.53c-3.067,6.335-9.604,6.486-14.43,6.586H8.899v11.614H0V57.763z M8.899,64.299v10.759h5.329
		c3.318,0,7.341-0.101,7.341-5.581c0-5.179-4.475-5.179-7.039-5.179H8.899z"/>
	<path fill="#939598" d="M65.466,57.763v35.496h-8.899V78.125H43.595v15.134h-8.949V57.763h8.949v12.821h12.972V57.763H65.466z"/>
	<path fill="#939598" d="M89.755,94.265c-11.262,0-17.647-8.647-17.647-18.904c0-9.603,6.084-18.703,17.497-18.703
		c2.111,0,4.323,0.302,6.485,1.056c10.86,3.771,11.564,15.586,11.564,18c0,6.134-2.816,11.665-6.737,14.832
		C97.447,93.41,93.425,94.265,89.755,94.265z M95.889,66.663c-1.508-1.609-3.821-2.615-6.234-2.615
		c-5.38,0-8.799,4.726-8.799,11.162c0,8.447,4.727,11.564,8.899,11.564c4.224,0,8.748-3.017,9-10.458
		C98.905,72.595,97.9,68.824,95.889,66.663z"/>
	<path fill="#939598" d="M109.168,57.713h27.352v7.039h-9.201v28.507h-8.899V64.752h-9.251V57.713z"/>
	<path fill="#939598" d="M155.83,94.265c-11.263,0-17.647-8.647-17.647-18.904c0-9.603,6.083-18.703,17.496-18.703
		c2.112,0,4.324,0.302,6.486,1.056c10.859,3.771,11.563,15.586,11.563,18c0,6.134-2.815,11.665-6.737,14.832
		C163.522,93.41,159.5,94.265,155.83,94.265z M161.964,66.663c-1.509-1.609-3.821-2.615-6.234-2.615
		c-5.38,0-8.799,4.726-8.799,11.162c0,8.447,4.726,11.564,8.899,11.564c4.223,0,8.748-3.017,8.999-10.458
		C164.98,72.595,163.975,68.824,161.964,66.663z"/>
	<path fill="#939598" d="M204.353,89.941c-1.458,1.357-4.475,4.123-10.457,4.123c-9.905,0-15.988-8.045-15.988-18.502
		c0-11.413,7.391-19.005,17.496-19.005c9.402,0,13.978,6.033,15.637,8.195l-6.737,4.072c-1.257-1.911-3.318-5.028-8.246-5.028
		c-6.736,0-9.301,5.581-9.301,11.514c0,4.022,1.106,7.291,2.815,9.05c1.357,1.458,3.771,2.564,6.485,2.564
		c1.609,0,3.419-0.402,4.877-1.357c2.313-1.508,2.615-3.419,2.866-5.279h-7.943V73.55h15.435v19.709h-6.938V89.941z"/>
	<path fill="#939598" d="M219.09,57.763h15.988c3.721,0.05,8.346,0.101,11.614,3.62c1.659,1.86,2.815,4.676,2.815,7.894
		c0,7.139-4.877,8.899-7.29,9.804l8.194,14.178h-9.804l-7.039-12.67h-5.581v12.67h-8.898V57.763z M227.988,64.4v9.603h7.341
		c1.257-0.05,5.33-0.151,5.33-4.877c0-4.525-3.269-4.676-5.129-4.726H227.988z"/>
	<path fill="#939598" d="M273.695,57.763l13.072,35.496h-9.452l-1.76-5.681h-13.072l-1.76,5.681h-9.452l13.173-35.496H273.695z
		 M268.919,66.21c-0.452,1.81-0.955,3.67-1.458,5.48c-0.754,2.665-2.111,6.838-2.916,9.503h9L268.919,66.21z"/>
	<path fill="#939598" d="M290.292,57.763h14.278c5.832,0,11.012,0,14.129,4.475c1.357,2.011,2.011,4.877,2.011,7.291
		c0,1.961-0.402,3.871-1.207,5.53c-3.066,6.335-9.603,6.486-14.43,6.586h-5.883v11.614h-8.898V57.763z M299.19,64.299v10.759h5.33
		c3.318,0,7.341-0.101,7.341-5.581c0-5.179-4.476-5.179-7.039-5.179H299.19z"/>
	<path fill="#939598" d="M355.758,57.763v35.496h-8.899V78.125h-12.972v15.134h-8.949V57.763h8.949v12.821h12.972V57.763H355.758z"
		/>
	<path fill="#939598" d="M359.333,57.763h10.206l7.643,12.167c0.452-1.005,0.553-1.207,1.458-2.665l6.084-9.502h10.105
		l-13.424,18.703v16.793h-8.749V76.718L359.333,57.763z"/>
</g>
<text transform="matrix(1 0 0 1 -179 17.6909)" font-family="'AkzidenzGroteskBE-Bold'" font-size="12">Berthold Bold</text>
</svg>
