<?xml version="1.0" encoding="utf-8"?>
<!-- Generator: Adobe Illustrator 16.0.4, SVG Export Plug-In . SVG Version: 6.00 Build 0)  -->
<!DOCTYPE svg PUBLIC "-//W3C//DTD SVG 1.1//EN" "http://www.w3.org/Graphics/SVG/1.1/DTD/svg11.dtd">
<svg version="1.1" id="Layer_1" xmlns="http://www.w3.org/2000/svg" xmlns:xlink="http://www.w3.org/1999/xlink" x="0px" y="0px"
	 width="40.354px" height="36.711px" viewBox="0 0 40.354 36.711" enable-background="new 0 0 40.354 36.711" xml:space="preserve">
<path display="none" fill="#8E99A8" d="M39.114,34.685c0,1.119-0.907,2.026-2.026,2.026h-9.355V22.495h4.772l0.714-5.541h-5.486
	v-3.537c0-1.604,0.445-2.697,2.746-2.697l2.935-0.001V5.763c-0.508-0.068-2.249-0.218-4.276-0.218c-4.229,0-7.125,2.582-7.125,7.323
	v4.086h-4.784v5.541h4.784v14.216H4.429c-1.119,0-2.026-0.907-2.026-2.026V2.026C2.403,0.907,3.31,0,4.429,0h32.659
	c1.119,0,2.026,0.907,2.026,2.026V34.685z"/>
<path fill="#8E99A8" d="M12.817,15.278v5.085c0,0,4.924-0.007,6.929-0.007c-1.086,3.297-2.774,5.092-6.929,5.092
	c-4.205,0-7.487-3.415-7.487-7.627c0-4.213,3.282-7.628,7.487-7.628c2.223,0,3.659,0.783,4.976,1.874
	c1.054-1.056,0.966-1.207,3.649-3.744c-2.277-2.076-5.304-3.342-8.625-3.342C5.739,4.981,0,10.729,0,17.821
	s5.739,12.84,12.817,12.84c10.58,0,13.166-9.23,12.309-15.383H12.817z"/>
<polygon fill="#8E99A8" points="35.912,15.533 35.912,11.083 32.74,11.083 32.74,15.533 28.171,15.533 28.171,18.711 32.74,18.711 
	32.74,23.288 35.912,23.288 35.912,18.711 40.354,18.711 40.354,15.533 "/>
<path display="none" fill="#8E99A8" d="M37.729,2.38c-1.486,0.902-3.129,1.558-4.884,1.909c-1.397-1.53-3.396-2.486-5.607-2.486
	c-4.24,0-7.682,3.528-7.682,7.879c0,0.618,0.066,1.217,0.198,1.794C13.369,11.147,7.708,8.014,3.916,3.241
	c-0.662,1.168-1.04,2.523-1.04,3.966c0,2.732,1.356,5.144,3.418,6.557c-1.257-0.038-2.444-0.396-3.481-0.982v0.096
	c0,3.819,2.648,7.005,6.167,7.727c-0.645,0.185-1.324,0.276-2.025,0.276c-0.495,0-0.979-0.047-1.447-0.14
	c0.979,3.129,3.815,5.408,7.179,5.47c-2.63,2.114-5.944,3.374-9.544,3.374c-0.619,0-1.232-0.036-1.833-0.107
	c3.4,2.231,7.441,3.536,11.778,3.536c14.136,0,21.863-12.004,21.863-22.417c0-0.343-0.006-0.685-0.021-1.021
	c1.502-1.112,2.807-2.498,3.832-4.078c-1.376,0.626-2.857,1.05-4.412,1.24C35.938,5.764,37.155,4.22,37.729,2.38"/>
</svg>
