<?xml version="1.0" encoding="utf-8"?>
<!-- Generator: Adobe Illustrator 16.0.4, SVG Export Plug-In . SVG Version: 6.00 Build 0)  -->
<!DOCTYPE svg PUBLIC "-//W3C//DTD SVG 1.1//EN" "http://www.w3.org/Graphics/SVG/1.1/DTD/svg11.dtd">
<svg version="1.1" id="Layer_1" xmlns="http://www.w3.org/2000/svg" xmlns:xlink="http://www.w3.org/1999/xlink" x="0px" y="0px"
	 width="2856px" height="416.16px" viewBox="0 0 2856 416.16" enable-background="new 0 0 2856 416.16" xml:space="preserve">
<g>
	<path fill="#3B3B3B" d="M1284.513,57.47l72.818,126.13L1461.738,2.762C1450.752,0.97,1439.491,0,1428,0
		C1372.352,0,1321.845,21.89,1284.513,57.47z"/>
	<path fill="#3B3B3B" d="M1486.718,8.456l-72.853,126.185h208.839C1599.815,73.989,1549.421,26.875,1486.718,8.456z"/>
	<path fill="#3B3B3B" d="M1484.534,159.12l104.407,180.839c29.449-35.897,47.139-81.822,47.139-131.879
		c0-16.872-2.062-33.253-5.851-48.96H1484.534z"/>
	<path fill="#3B3B3B" d="M1267.059,76.202c-29.449,35.897-47.139,81.822-47.139,131.878c0,16.872,2.062,33.254,5.851,48.96h145.7
		L1267.059,76.202z"/>
	<path fill="#3B3B3B" d="M1394.262,413.394c10.986,1.797,22.248,2.767,33.738,2.767c55.648,0,106.15-21.885,143.487-57.47
		l-72.818-126.131L1394.262,413.394z"/>
	<path fill="#3B3B3B" d="M1233.296,281.521c22.889,60.651,73.283,107.766,135.986,126.18l72.853-126.18H1233.296z"/>
</g>
<g>
	<path fill="#3B3B3B" d="M1145.5,208.08c0-1.504,0.034-3.001,0.057-4.5H0v9h1145.557C1145.534,211.081,1145.5,209.585,1145.5,208.08
		z"/>
	<path fill="#3B3B3B" d="M1710.443,203.58c0.023,1.499,0.057,2.996,0.057,4.5c0,1.505-0.033,3.001-0.057,4.5H2856v-9H1710.443z"/>
</g>
</svg>
