<?xml version="1.0" encoding="utf-8"?>
<!-- Generator: Adobe Illustrator 22.1.0, SVG Export Plug-In . SVG Version: 6.00 Build 0)  -->
<svg version="1.1" id="Layer_1" xmlns="http://www.w3.org/2000/svg" xmlns:xlink="http://www.w3.org/1999/xlink" x="0px" y="0px"
	 viewBox="0 0 311.1 311.1" style="enable-background:new 0 0 311.1 311.1;" xml:space="preserve">
<path d="M164.3,155.6L309.2,10.7c2.6-2.6,2.6-6.1,0-8.7c-2.6-2.6-6.1-2.6-8.7,0L155.7,146.9l-145-145C8.1-0.6,4.6-0.6,2,1.9
	C-0.6,4.5-0.6,8,2,10.6l145,145L1.9,300.6c-2.6,2.6-2.6,6.1,0,8.7c2.6,2.6,6.5,2.2,8.7,0l145.1-145.1l145,145c2.6,2.6,6.1,2.6,8.7,0
	c2.6-2.6,2.2-6.5,0-8.7L164.3,155.6z"/>
</svg>
